<svg width="473" height="399" viewBox="0 0 473 399" fill="none" xmlns="http://www.w3.org/2000/svg">
<g clip-path="url(#clip0_50_451)">
<path opacity="0.15" d="M-271.806 -140.139C-270.223 -141.287 -267.657 -141.287 -266.074 -140.139C-264.886 -139.279 -264.593 -138.019 -265.193 -136.967L-176.422 -72.9882V7.77477L-154.794 23.3631V111.203L-80.7181 164.599L-69.1764 156.279L-126.297 115.108V66.9563L-126.068 66.7969L-61.1202 19.9841V3.64656L-97.8517 -22.8281C-99.4349 -21.9993 -101.656 -22.0949 -103.086 -23.1151C-104.669 -24.2627 -104.669 -26.1116 -103.086 -27.2432C-101.503 -28.3909 -98.937 -28.3909 -97.3538 -27.2432C-95.9239 -26.2072 -95.7962 -24.6133 -96.9453 -23.4657L-60.2138 3.009V20.6535L-60.4435 20.8129L-125.391 67.6258V114.471L-82.2374 145.583V125.516L-102.027 111.251C-103.61 112.08 -105.831 111.984 -107.261 110.964C-108.844 109.816 -108.844 107.967 -107.261 106.836C-105.678 105.688 -103.112 105.688 -101.529 106.836C-100.099 107.872 -99.9711 109.466 -101.12 110.613L-81.3309 124.879V146.253L-68.2699 155.657L-52.8342 144.532V109.593L-81.9437 88.6015V64.4539L-81.7139 64.2945L-20.4181 20.1116C-21.5671 18.964 -21.4395 17.3701 -20.0095 16.334C-18.4264 15.1864 -15.8601 15.1864 -14.277 16.334C-12.6938 17.4816 -12.6938 19.3306 -14.277 20.4622C-15.7069 21.4983 -17.9284 21.578 -19.5116 20.7491L-81.0245 65.0915V87.9321L-52.8215 108.27V84.1864L-52.5917 84.027L-15.0941 56.9945C-16.2431 55.8468 -16.1155 54.2529 -14.6855 53.2169C-13.1024 52.0693 -10.5362 52.0693 -8.95303 53.2169C-7.36987 54.3645 -7.36987 56.2134 -8.95303 57.3451C-10.383 58.3811 -12.6045 58.4608 -14.1876 57.632L-51.915 84.824V143.846L-41.0756 136.036L-23.2141 148.915L-7.03793 137.247V108.908L-6.80814 108.748L35.9624 77.9224V51.2086C35.0814 51.1448 34.226 50.8739 33.5493 50.3798C31.9662 49.2322 31.9662 47.3832 33.5493 46.2516C35.1325 45.1039 37.6987 45.1039 39.2819 46.2516C40.865 47.3992 40.865 49.2481 39.2819 50.3798C38.6052 50.8739 37.7498 51.1289 36.8688 51.2086V78.5759L36.639 78.7353L-6.13147 109.561V136.594L63.4759 86.4179V33.2294L25.723 6.02147H-8.92749L-9.0296 5.94179L-68.487 -36.9023C-70.0701 -36.0735 -72.2916 -36.1691 -73.7216 -37.1892C-75.3047 -38.3368 -75.3047 -40.1857 -73.7216 -41.3174C-72.1384 -42.465 -69.5722 -42.465 -67.9891 -41.3174C-66.5591 -40.2814 -66.4315 -38.6875 -67.5805 -37.5398L-8.68491 4.90575H24.1526L-85.0717 -73.817C-86.6548 -72.9882 -88.8763 -73.0839 -90.3063 -74.104C-91.8894 -75.2516 -91.8894 -77.1005 -90.3063 -78.2322C-88.7231 -79.3798 -86.1569 -79.3798 -84.5738 -78.2322C-83.1438 -77.1961 -83.0162 -75.6022 -84.1652 -74.4546L64.3824 32.6078V87.1032L64.1526 87.2627L-22.3204 149.584L-4.91855 162.128L142.723 55.7193V-7.78171L142.952 -7.94109L193.166 -44.1227C192.017 -45.2703 192.145 -46.8642 193.575 -47.9002C195.158 -49.0478 197.724 -49.0478 199.307 -47.9002C200.89 -46.7526 200.89 -44.9037 199.307 -43.772C197.877 -42.736 195.656 -42.6563 194.073 -43.4851L143.642 -7.12822V56.3728L143.412 56.5322L-3.9993 162.782L12.5727 174.72L158.58 69.4747H245.653L300.067 30.2488V-30.0326C299.492 -30.176 298.943 -30.3992 298.496 -30.7179C296.913 -31.8656 296.913 -33.7145 298.496 -34.8462C300.08 -35.9938 302.646 -35.9938 304.229 -34.8462C305.812 -33.6985 305.812 -31.8496 304.229 -30.7179C303.335 -30.0804 302.135 -29.8094 300.973 -29.8891V30.9023L300.744 31.0617L245.882 70.6064H158.809L35.5538 159.45H60.3479L102.416 129.134H134.82L134.922 129.214L179.863 161.602C181.446 160.773 183.667 160.869 185.097 161.889C186.68 163.037 186.68 164.886 185.097 166.017C183.514 167.165 180.948 167.165 179.365 166.017C177.935 164.981 177.807 163.387 178.956 162.24L134.577 130.25H102.659L60.5905 160.566H33.9835L13.4664 175.358L57.6923 207.236L70.2681 198.166V174.369L102.212 151.337C101.063 150.19 101.191 148.596 102.62 147.56C104.204 146.412 106.77 146.412 108.353 147.56C109.936 148.708 109.936 150.556 108.353 151.688C106.923 152.724 104.702 152.804 103.118 151.975L71.1746 175.007V197.497L105.251 172.935H121.388L121.491 173.015L140.731 186.882C142.314 186.053 144.536 186.148 145.965 187.168C147.549 188.316 147.549 190.165 145.965 191.297C144.382 192.444 141.816 192.444 140.233 191.297C138.803 190.261 138.675 188.667 139.824 187.519L121.146 174.067H105.506L58.6115 207.857L67.1274 213.994L39.9457 233.583L52.6747 242.764H71.9279L85.7038 232.834C84.6058 231.702 84.759 230.124 86.1634 229.104C87.7466 227.956 90.3128 227.956 91.8959 229.104C93.4791 230.252 93.4791 232.1 91.8959 233.232C90.4532 234.268 88.1934 234.348 86.5975 233.487L72.1704 243.879H54.2451L86.7124 267.278L163.086 212.225H218.05L218.152 212.304L249.1 234.603C250.683 233.774 252.904 233.87 254.334 234.89C255.917 236.037 255.917 237.886 254.334 239.018C252.751 240.166 250.185 240.166 248.602 239.018C247.172 237.982 247.044 236.388 248.193 235.24L217.807 213.34H163.342L104.433 255.802H129.649L154.29 238.046C153.141 236.898 153.268 235.304 154.698 234.268C156.281 233.121 158.848 233.121 160.431 234.268C162.014 235.416 162.014 237.265 160.431 238.396C159.001 239.432 156.779 239.512 155.196 238.683L129.891 256.918H102.863L87.6316 267.9L126.406 295.841H250.325L346.604 226.442C345.455 225.295 345.582 223.701 347.012 222.665C348.595 221.517 351.162 221.517 352.745 222.665C354.328 223.812 354.328 225.661 352.745 226.793C351.315 227.829 349.093 227.909 347.51 227.08L250.568 296.956H127.976L143.361 308.05H235.094L235.196 308.13L280.431 340.741C282.014 339.912 284.235 340.008 285.665 341.028C287.248 342.175 287.248 344.024 285.665 345.156C284.082 346.304 281.516 346.304 279.933 345.156C278.503 344.12 278.375 342.526 279.524 341.378L234.839 309.182H143.106L143.003 309.102L39.0393 234.173L27.4976 242.493L136.799 321.279H216.735L216.837 321.359L313.383 390.949H447.146L473 372.316V373.623L447.389 392.08H313.141L313.038 392.001L252.445 348.328V374.181L292.381 402.967C293.964 402.138 296.186 402.234 297.616 403.254C299.199 404.401 299.199 406.25 297.616 407.382C296.032 408.529 293.466 408.529 291.883 407.382C290.453 406.346 290.325 404.752 291.474 403.604L251.538 374.818V347.818H251.743L216.479 322.395H136.543L136.441 322.315L26.5784 243.13L13.4664 252.582L226.629 406.218V433.984H225.723V406.872L12.5598 253.236L-3.64182 264.919L106.31 344.168V358.337L125.806 372.396V404.991L163.61 432.247C165.193 431.418 167.415 431.513 168.844 432.534C169.419 432.948 169.789 433.458 169.942 434H162.039C162.154 433.602 162.371 433.235 162.703 432.9L124.899 405.644V373.049L106.31 359.645V411.829L95.3431 419.735L115.107 433.984H113.294L94.4366 420.388L75.5793 433.984H73.7663L105.417 411.175V344.821L-4.53555 265.572L-19.2817 276.204L58.535 332.293C60.1181 331.464 62.3396 331.56 63.7696 332.58C65.3527 333.728 65.3527 335.577 63.7696 336.708C62.1864 337.856 59.6202 337.856 58.037 336.708C56.6071 335.672 56.4794 334.078 57.6285 332.931L-20.1883 276.841L-34.4238 287.106L58.6626 354.193H83.9547C84.1078 353.651 84.4781 353.125 85.0654 352.695C86.6486 351.547 89.2148 351.547 90.7979 352.695C92.3811 353.843 92.3811 355.692 90.7979 356.823C89.2148 357.971 86.6486 357.971 85.0654 356.823C84.4781 356.393 84.1078 355.867 83.9547 355.325H58.42L58.3179 355.245L-35.3175 287.759L-41.0628 291.904L-45.4803 288.716L-67.7848 304.782V327.161L-49.3616 340.438V340.374H-20.4436L-20.3415 340.454L11.3853 363.326C12.9684 362.498 15.1899 362.593 16.6199 363.613C18.203 364.761 18.203 366.61 16.6199 367.741C15.0367 368.889 12.4705 368.889 10.8874 367.741C9.45743 366.705 9.32974 365.112 10.4788 363.964L-20.6862 341.506H-47.8678L6.30389 380.541C7.89981 379.648 10.1852 379.712 11.6534 380.764C13.2366 381.911 13.2366 383.76 11.6534 384.892C10.0703 386.039 7.50403 386.039 5.9209 384.892C4.52927 383.888 4.36328 382.342 5.42297 381.194L-62.1416 332.5V343.259L-21.9502 372.236V392.686L10.7724 416.276C12.3556 415.447 14.5771 415.543 16.007 416.563C17.5902 417.71 17.5902 419.559 16.007 420.691C14.4239 421.839 11.8577 421.839 10.2746 420.691C8.8446 419.655 8.71695 418.061 9.866 416.913L-22.8567 393.324V372.874L-63.0481 343.897V331.831L-68.6785 327.766V304.081L-46.374 287.999L-61.0309 277.431L-106.917 310.504V348.105L-75.7515 370.563C-74.1556 369.67 -71.8703 369.734 -70.402 370.786C-68.8189 371.933 -68.8189 373.782 -70.402 374.914C-71.9852 376.062 -74.5515 376.062 -76.1346 374.914C-77.5262 373.91 -77.6922 372.364 -76.6325 371.216L-106.904 349.396V379.775L-82.9907 397.021V433.904H-83.8972V397.675L-106.904 381.082V433.888H-107.81V309.819L-61.9246 276.746L-78.3816 264.887L-138.362 308.114V411.08L-167.191 431.864V433.888H-168.098V431.211L-139.269 410.426V307.46L-79.2881 264.234L-91.4809 255.435L-172.426 313.772V401.612L-217.175 433.872H-218.988L-173.332 400.958V313.118L-92.3874 254.782L-112.151 240.532L-246.833 337.601V381.306L-292.987 414.57V413.263L-247.74 380.652V336.947L-171.992 282.34H-231.896L-292.987 326.38V325.073L-232.138 281.209H-170.408L-113.058 239.879L-136.039 223.318L-185.333 258.846H-264.491L-292.987 279.376V278.069L-286.744 273.574H-292.987V272.442H-285.174L-264.746 257.714H-185.589L-171.787 247.769H-205.442L-205.544 247.689L-222.422 235.527H-292.758L-292.987 235.687V234.38H-223.993L-242.991 220.688C-244.574 221.517 -246.795 221.421 -248.225 220.401C-249.808 219.254 -249.808 217.405 -248.225 216.273C-246.642 215.125 -244.076 215.125 -242.493 216.273C-241.063 217.309 -240.935 218.903 -242.084 220.051L-205.187 246.653H-170.204L-136.932 222.681L-149.227 213.818L-141.312 208.112H-164.306L-194.36 229.773C-193.211 230.921 -193.339 232.515 -194.768 233.551C-196.352 234.699 -198.918 234.699 -200.501 233.551C-202.084 232.403 -202.084 230.554 -200.501 229.423C-199.071 228.387 -196.849 228.307 -195.266 229.136L-164.548 206.997H-139.741L-122.914 194.867L-133.255 187.407H-151.602L-167.74 175.772H-179.78L-206.974 195.377C-205.748 196.525 -205.85 198.166 -207.306 199.218C-208.889 200.366 -211.455 200.366 -213.038 199.218C-214.622 198.071 -214.622 196.222 -213.038 195.09C-211.634 194.086 -209.476 193.974 -207.893 194.739L-180.022 174.656H-167.497L-151.36 186.292H-134.826L-167.906 162.447H-185.767L-222.997 189.272H-292.974V188.141H-223.24L-186.01 161.315H-167.663L-167.561 161.395L-122.008 194.229L-110.057 185.622L-161.535 148.516H-197.845L-227.797 170.098H-292.987V168.966H-228.053L-199.671 148.516H-292.987V147.385H-161.305L-161.203 147.464L-109.176 184.969L-95.592 175.182L-167.37 123.444H-292.987V122.313H-201.446L-292.987 56.325V55.018L-199.633 122.313H-168.034L-236.083 73.2682V62.4615L-268.653 38.9993C-270.236 39.8281 -272.457 39.7325 -273.887 38.7124C-275.471 37.5648 -275.471 35.7159 -273.887 34.5842C-272.304 33.4366 -269.738 33.4366 -268.155 34.5842C-266.725 35.6202 -266.597 37.2141 -267.746 38.3617L-250.013 51.1449V21.5142L-293 -9.47125V-10.7782L-249.106 20.8607V51.7983L-235.177 61.8399V72.6465L-166.565 122.105L-166.795 122.599L-94.6855 174.577L-81.5734 165.125L-155.649 111.729V23.8891L-292.987 -75.1081V-76.4151L-177.277 6.99376V-72.4622L-265.882 -136.17C-265.946 -136.123 -265.997 -136.059 -266.061 -136.011C-267.644 -134.863 -270.21 -134.863 -271.794 -136.011C-273.377 -137.159 -273.377 -139.008 -271.794 -140.139H-271.806ZM-147.478 214.026L-41.0756 290.724L65.3144 214.042L-41.0883 137.343L-147.478 214.026Z" fill="url(#paint0_radial_50_451)"/>
</g>
<defs>
<radialGradient id="paint0_radial_50_451" cx="0" cy="0" r="1" gradientUnits="userSpaceOnUse" gradientTransform="translate(-309.636 -54.2758) scale(560.919 700.265)">
<stop stop-color="#13161F"/>
<stop offset="1" stop-color="#4AACB8"/>
</radialGradient>
<clipPath id="clip0_50_451">
<rect width="473" height="399" fill="white"/>
</clipPath>
</defs>
</svg>
