<svg width="1440" height="721" viewBox="0 0 1440 721" fill="none" xmlns="http://www.w3.org/2000/svg">
<g clip-path="url(#clip0_20_11947)">
<g opacity="0.15" filter="url(#filter0_f_20_11947)">
<circle cx="1354.5" cy="392.5" r="177.5" fill="#4AACB8"/>
</g>
<g opacity="0.5">
<path opacity="0.8" d="M1736 94.9626L1708.38 113.683V174.026L1462.95 340.386L1444.3 327.752L1570.89 241.945V226.596L1593.33 211.379V176.106L1636.86 146.613C1638.68 147.511 1641.24 147.402 1642.88 146.285C1644.71 145.059 1644.71 143.044 1642.88 141.818C1641.05 140.592 1638.11 140.592 1636.28 141.818C1634.64 142.935 1634.49 144.665 1635.81 145.913L1592.28 175.427V210.701L1570.89 225.195V168.706L1570.63 168.53L1558.27 160.145L1632.47 109.851V53.2742L1685.2 17.5413C1687.03 18.439 1689.58 18.3295 1691.22 17.2128C1693.05 15.9867 1693.05 13.9723 1691.22 12.7462C1689.39 11.5201 1686.45 11.5201 1684.62 12.7462C1682.98 13.8629 1682.83 15.5926 1684.15 16.8406L1631.43 52.5735V109.151L1557.22 159.444L1436.57 77.6654V14.3883C1437.58 14.3008 1438.57 14.0161 1439.35 13.4906C1441.18 12.2645 1441.18 10.2502 1439.35 9.02403C1437.53 7.7979 1434.58 7.7979 1432.75 9.02403C1430.92 10.2502 1430.92 12.2645 1432.75 13.4906C1433.53 14.0161 1434.52 14.3008 1435.53 14.3883V78.3661L1435.79 78.5412L1508.36 127.74H1455.47L1412.7 98.7505C1414.03 97.5243 1413.88 95.7727 1412.24 94.6561C1410.41 93.43 1407.46 93.43 1405.63 94.6561C1403.81 95.8822 1403.81 97.8966 1405.63 99.1227C1407.28 100.239 1409.83 100.327 1411.66 99.4511L1455.19 128.966H1510.15L1569.87 169.428V241.266L1443.27 327.073L1426.3 315.578L1515.89 254.841C1517.72 255.739 1520.28 255.629 1521.92 254.513C1523.74 253.287 1523.74 251.272 1521.92 250.046C1520.09 248.82 1517.14 248.82 1515.31 250.046C1513.67 251.163 1513.52 252.893 1514.85 254.141L1425.25 314.878L1408.86 303.777L1516.02 231.129H1545.15C1545.32 231.72 1545.75 232.289 1546.44 232.749C1548.27 233.975 1551.22 233.975 1553.04 232.749C1554.87 231.523 1554.87 229.508 1553.04 228.282C1551.22 227.056 1548.27 227.056 1546.44 228.282C1545.77 228.742 1545.34 229.311 1545.15 229.903H1515.74L1515.61 229.99L1407.8 303.076L1401.18 298.588L1400.92 298.763L1396.09 302.047L1370.4 284.641V260.424L1391.63 246.039V246.105H1424.92L1461.57 221.254C1463.39 222.152 1465.95 222.042 1467.59 220.926C1469.42 219.699 1469.42 217.685 1467.59 216.459C1465.76 215.233 1462.81 215.233 1460.99 216.459C1459.35 217.576 1459.2 219.305 1460.52 220.553L1424.64 244.879H1393.34L1455.71 202.599C1457.54 203.563 1460.19 203.497 1461.86 202.358C1463.69 201.132 1463.69 199.118 1461.86 197.892C1460.04 196.666 1457.09 196.666 1455.26 197.892C1453.66 198.987 1453.47 200.651 1454.68 201.899L1376.89 254.622V242.974L1423.18 211.598V189.44L1460.86 163.911C1462.68 164.808 1465.24 164.699 1466.88 163.582C1468.71 162.356 1468.71 160.342 1466.88 159.115C1465.05 157.889 1462.11 157.889 1460.28 159.115C1458.64 160.232 1458.49 161.962 1459.81 163.21L1422.14 188.74V210.898L1375.85 242.273V255.345L1369.36 259.746V285.385L1395.04 302.792L1378.16 314.221L1325.33 278.4V237.697L1361.21 213.372C1363.04 214.335 1365.69 214.269 1367.36 213.131C1369.19 211.905 1369.19 209.89 1367.36 208.664C1365.54 207.438 1362.59 207.438 1360.76 208.664C1359.16 209.759 1358.97 211.423 1360.18 212.671L1325.33 236.296V203.409L1352.87 184.755V122.879C1353.88 122.791 1354.87 122.507 1355.65 121.981C1357.48 120.755 1357.48 118.741 1355.65 117.515C1353.82 116.289 1350.88 116.289 1349.05 117.515C1347.22 118.741 1347.22 120.755 1349.05 121.981C1349.83 122.507 1350.82 122.791 1351.83 122.879V184.032L1325.33 201.986V92.9045H1324.28V279.145L1377.12 314.965L1358.17 327.796L1289.11 280.984V169.516L1255.91 147.007V105.078L1226.59 85.2192C1227.92 83.9931 1227.77 82.2415 1226.13 81.1249C1224.3 79.8987 1221.35 79.8987 1219.53 81.1249C1217.7 82.351 1217.7 84.3653 1219.53 85.5915C1221.17 86.7081 1223.72 86.7957 1225.55 85.9199L1254.87 105.779V147.708L1288.06 170.216V281.685L1357.13 328.497L1343.08 338.021L1249.89 274.853V179.741L1249.63 179.566L1167.14 123.645C1168.46 122.419 1168.31 120.668 1166.67 119.551C1164.84 118.325 1161.9 118.325 1160.07 119.551C1158.24 120.777 1158.24 122.791 1160.07 124.018C1161.71 125.134 1164.27 125.222 1166.09 124.346L1248.84 180.441V275.554L1249.1 275.729L1342.04 338.722L1319.28 354.158L1164.23 249.061V201.724L1163.97 201.548L1034.16 113.552C1035.49 112.325 1035.34 110.574 1033.7 109.457C1031.87 108.231 1028.92 108.231 1027.09 109.457C1025.27 110.683 1025.27 112.698 1027.09 113.924C1028.74 115.04 1031.29 115.128 1033.12 114.252L1163.2 202.424V249.762L1163.46 249.937L1250.41 308.879H1181.44L1101.6 254.754C1102.93 253.528 1102.78 251.776 1101.14 250.659C1099.31 249.433 1096.36 249.433 1094.53 250.659C1092.71 251.885 1092.71 253.9 1094.53 255.126C1096.17 256.243 1098.73 256.33 1100.56 255.454L1181.16 310.105H1252.22L1318.26 354.858L1291.81 372.791L1235.06 334.321H1143.92L1040.26 264.059H982.764L959.321 248.163C960.645 246.937 960.496 245.185 958.855 244.069C957.027 242.843 954.08 242.843 952.252 244.069C950.425 245.295 950.425 247.309 952.252 248.535C953.894 249.652 956.449 249.74 958.276 248.864L982.484 265.263H1039.98L1118.31 318.359H1050.65L1018.07 296.267C1019.39 295.019 1019.24 293.289 1017.6 292.173C1015.77 290.946 1012.83 290.946 1011 292.173C1009.17 293.399 1009.17 295.413 1011 296.639C1012.64 297.756 1015.2 297.843 1017.02 296.968L1050.37 319.563H1120.12L1143.64 335.503H1234.78L1250.67 346.275H1211.93L1211.8 346.363L1192.37 359.544H1111.39L1088.55 344.064H1042.74C1042.57 343.473 1042.15 342.904 1041.47 342.444C1039.65 341.218 1036.7 341.218 1034.87 342.444C1033.04 343.67 1033.04 345.684 1034.87 346.91C1036.7 348.137 1039.65 348.137 1041.47 346.91C1042.15 346.451 1042.57 345.881 1042.76 345.29H1088.29L1111.13 360.77H1190.58L1168.7 375.593C1166.88 374.695 1164.32 374.805 1162.68 375.922C1160.85 377.148 1160.85 379.162 1162.68 380.388C1164.51 381.614 1167.45 381.614 1169.28 380.388C1170.92 379.272 1171.07 377.542 1169.75 376.316L1212.23 347.524H1252.52L1290.82 373.491L1276.67 383.081L1277.45 383.607L1285.77 389.256H1259.31L1224.69 365.806C1226.02 364.558 1225.87 362.828 1224.23 361.712C1222.4 360.485 1219.45 360.485 1217.62 361.712C1215.8 362.938 1215.8 364.952 1217.62 366.178C1219.26 367.295 1221.82 367.382 1223.65 366.507L1259.03 390.482H1287.6L1306.98 403.619L1295.06 411.698H1273.93L1273.8 411.786L1255.33 424.288H1241.48L1210.16 403.072C1211.56 401.824 1211.45 400.05 1209.77 398.911C1207.94 397.685 1205 397.685 1203.17 398.911C1201.34 400.138 1201.34 402.152 1203.17 403.378C1204.77 404.473 1207.27 404.582 1209.1 403.75L1241.2 425.492H1255.61L1255.73 425.405L1274.19 412.903H1293.23L1255.15 438.717H1234.59L1191.74 409.662H1062.49L982.316 355.318C983.696 354.07 983.584 352.319 981.906 351.18C980.078 349.954 977.132 349.954 975.304 351.18C973.476 352.406 973.476 354.421 975.304 355.647C976.926 356.741 979.425 356.851 981.253 356.019L1062.19 410.888H1191.44L1234.3 439.943H1255.43L1255.54 439.855L1307.98 404.298L1321.75 413.625L1262.48 453.803H1220.68L1186.2 430.419H1097.69C1097.52 429.828 1097.09 429.258 1096.4 428.798C1094.57 427.572 1091.62 427.572 1089.8 428.798C1087.97 430.025 1087.97 432.039 1089.8 433.265C1091.62 434.491 1094.57 434.491 1096.4 433.265C1097.07 432.805 1097.5 432.236 1097.67 431.645H1185.9L1218.57 453.781H1093.86L1093.75 453.868L974.893 534.421C973.066 533.523 970.511 533.633 968.87 534.749C967.042 535.975 967.042 537.99 968.87 539.216C970.697 540.442 973.644 540.442 975.472 539.216C977.113 538.099 977.262 536.369 975.938 535.143L1094.14 455.029H1262.76L1262.87 454.941L1322.77 414.326L1338.4 424.923L1255.76 480.931H1110.26L1110.14 481.018L982.727 567.395H834.254L747.662 508.716C748.986 507.49 748.837 505.738 747.196 504.643C745.368 503.417 742.421 503.417 740.594 504.643C738.766 505.869 738.766 507.884 740.594 509.11C742.235 510.227 744.79 510.314 746.618 509.438L833.974 568.643H983.006L983.137 568.555L1110.55 482.179H1216.54L1060.91 587.67V615.433L998.821 657.516C996.994 656.618 994.439 656.727 992.798 657.844C990.97 659.07 990.97 661.084 992.798 662.311C994.625 663.537 997.572 663.537 999.4 662.311C1001.04 661.194 1001.19 659.464 999.866 658.216L1061.95 616.134V588.37L1218.65 482.157H1255.04L1176.69 535.275V546.989L1139.2 572.409C1137.37 571.511 1134.82 571.621 1133.18 572.737C1131.35 573.964 1131.35 575.978 1133.18 577.204C1135 578.43 1137.95 578.43 1139.78 577.204C1141.42 576.087 1141.57 574.358 1140.24 573.11L1160.67 559.272V591.348L1042.72 671.288C1040.9 670.39 1038.34 670.499 1036.7 671.616C1034.87 672.842 1034.87 674.857 1036.7 676.083C1038.53 677.309 1041.47 677.309 1043.3 676.083C1044.94 674.966 1045.09 673.236 1043.77 671.988L1161.71 592.049V558.549L1177.75 547.689V535.975L1256.75 482.442L1256.49 481.916L1339.52 425.646L1354.61 435.871L1269.32 493.674V588.786L1112.46 695.109H1114.54L1244.42 607.091V693.117L1241.46 695.131H1243.55L1245.45 693.84V606.39L1270.35 589.509V494.396L1355.63 436.593L1368.91 445.592L1303.15 490.171V542.303L1303.41 542.478L1378.18 593.166V610.857L1335.88 639.518C1334.06 638.62 1331.5 638.729 1329.86 639.846C1328.03 641.072 1328.03 643.087 1329.86 644.313C1331.69 645.539 1334.63 645.539 1336.46 644.313C1338.1 643.196 1338.25 641.466 1336.93 640.218L1379.21 611.557V592.465L1378.95 592.29L1304.18 541.602V490.871L1353.86 457.196V478.916L1331.07 494.353C1329.24 493.455 1326.69 493.564 1325.05 494.681C1323.22 495.907 1323.22 497.921 1325.05 499.148C1326.87 500.374 1329.82 500.374 1331.65 499.148C1333.29 498.031 1333.44 496.301 1332.12 495.075L1354.89 479.639V456.496L1369.92 446.315L1387.69 458.357V496.192L1354.18 518.919V545.084L1354.44 545.259L1425.01 593.1C1423.69 594.326 1423.84 596.078 1425.48 597.194C1427.31 598.42 1430.25 598.42 1432.08 597.194C1433.91 595.968 1433.91 593.954 1432.08 592.728C1430.44 591.611 1427.88 591.523 1426.06 592.399L1355.22 544.383V519.642L1387.69 497.637V523.714L1431.13 553.163C1429.8 554.411 1429.95 556.141 1431.59 557.236C1433.42 558.462 1436.37 558.462 1438.2 557.236C1440.02 556.009 1440.02 553.995 1438.2 552.769C1436.56 551.652 1434 551.565 1432.17 552.441L1388.74 522.992V459.079L1401.21 467.531L1401.47 467.356L1421.78 453.584L1440.42 466.217V496.892L1489.93 530.458V559.381C1488.92 559.469 1487.94 559.753 1487.15 560.279C1485.33 561.505 1485.33 563.519 1487.15 564.746C1488.98 565.972 1491.93 565.972 1493.76 564.746C1495.58 563.519 1495.58 561.505 1493.76 560.279C1492.97 559.753 1491.98 559.469 1490.98 559.381V529.757L1441.46 496.192V466.918L1521.62 521.24V578.824L1478.15 608.295H1438.25L1438.14 608.383L1369.7 654.779C1367.87 653.881 1365.31 653.99 1363.67 655.107C1361.84 656.333 1361.84 658.347 1363.67 659.574C1365.5 660.8 1368.45 660.8 1370.27 659.574C1371.91 658.457 1372.06 656.727 1370.74 655.501L1438.55 609.543H1476.35L1350.62 694.781C1348.79 693.883 1346.23 693.993 1344.59 695.109C1344.57 695.109 1344.56 695.153 1344.54 695.153H1352.16L1522.7 579.569V520.561L1522.44 520.386L1422.89 452.905L1442.92 439.33L1612.89 554.542V623.293L1670.95 662.661C1669.62 663.887 1669.77 665.639 1671.42 666.733C1673.24 667.959 1676.19 667.959 1678.02 666.733C1679.84 665.507 1679.84 663.493 1678.02 662.267C1676.38 661.15 1673.82 661.062 1671.99 661.938L1613.92 622.571V553.82L1613.66 553.645L1443.94 438.607L1463.02 425.667L1631.13 539.61H1731.37L1736.07 542.807V541.383L1731.65 538.384H1631.41L1489.5 442.198H1518.04L1566.47 475.019H1603.77L1603.9 474.932L1655.64 439.855C1657.46 440.753 1660.02 440.644 1661.66 439.527C1663.49 438.301 1663.49 436.287 1661.66 435.06C1659.83 433.834 1656.89 433.834 1655.06 435.06C1653.42 436.177 1653.27 437.907 1654.59 439.155L1603.49 473.793H1566.75L1518.32 440.972H1487.69L1464.06 424.967L1514.98 390.46L1529.45 400.269V426.04L1566.23 450.978C1564.9 452.204 1565.05 453.956 1566.7 455.051C1568.52 456.277 1571.47 456.277 1573.3 455.051C1575.13 453.825 1575.13 451.81 1573.3 450.584C1571.66 449.467 1569.1 449.38 1567.27 450.256L1530.5 425.317V400.97L1569.72 427.55H1588.29L1588.4 427.463L1610.56 412.443C1612.39 413.34 1614.94 413.231 1616.58 412.114C1618.41 410.888 1618.41 408.874 1616.58 407.648C1614.76 406.422 1611.81 406.422 1609.98 407.648C1608.34 408.764 1608.19 410.494 1609.52 411.742L1588.01 426.324H1570L1516 389.737L1525.81 383.081L1525.03 382.556L1494.52 361.865L1509.18 351.924H1531.33L1547.19 362.675C1545.92 363.901 1546.09 365.609 1547.71 366.704C1549.54 367.93 1552.48 367.93 1554.31 366.704C1556.14 365.478 1556.14 363.463 1554.31 362.237C1552.65 361.099 1550.04 361.033 1548.21 361.952L1531.6 350.698H1510.97L1548.34 325.366L1636.28 384.964H1699.56L1699.69 384.877L1735.31 360.726C1735.53 360.836 1735.79 360.88 1736.06 360.967V355.318C1735.59 355.471 1735.14 355.668 1734.75 355.931C1733.11 357.048 1732.96 358.778 1734.28 360.004L1699.3 383.716H1636.58L1568.77 337.736H1597.78L1626.15 356.96C1624.83 358.186 1624.98 359.938 1626.62 361.055C1628.45 362.281 1631.39 362.281 1633.22 361.055C1635.05 359.829 1635.05 357.814 1633.22 356.588C1631.58 355.471 1629.02 355.384 1627.2 356.26L1598.05 336.51H1566.94L1549.39 324.621L1594.04 294.362H1736.04V293.136H1595.85L1613.56 281.137H1719.18L1719.29 281.05L1736.04 269.708V268.285L1718.9 279.911H1613.28L1613.15 279.999L1493.46 361.12L1480.18 352.122L1606.01 266.818H1698.05L1698.16 266.73L1736.04 241.047V239.624L1697.75 265.57H1605.71L1605.6 265.657L1479.11 351.399L1464.03 341.174L1709.46 174.814V114.471L1736.04 96.4515V95.0283L1736 94.9626ZM1523.67 382.95L1401.16 465.976L1278.66 382.95L1401.18 299.923L1523.67 382.95Z" fill="#4AACB8"/>
<path opacity="0.1" d="M1706.89 -93.8175C1704.72 -95.3942 1701.19 -95.3942 1699.02 -93.8175C1697.39 -92.6349 1696.99 -90.9049 1697.81 -89.4596L1575.9 -1.55772V109.404L1546.19 130.821V251.505L1444.46 324.866L1428.61 313.435L1507.06 256.87V190.714L1506.74 190.495L1417.54 126.178V103.732L1467.99 67.3579C1470.16 68.4966 1473.21 68.3652 1475.18 66.9637C1477.35 65.387 1477.35 62.8467 1475.18 61.2919C1473 59.7152 1469.48 59.7152 1467.31 61.2919C1465.34 62.7153 1465.17 64.9052 1466.74 66.4819L1416.3 102.856V127.098L1416.61 127.317L1505.81 191.634V255.994L1446.55 298.741V271.17L1473.72 251.571C1475.9 252.71 1478.95 252.578 1480.91 251.177C1483.09 249.6 1483.09 247.06 1480.91 245.505C1478.74 243.928 1475.21 243.928 1473.04 245.505C1471.08 246.928 1470.9 249.118 1472.48 250.695L1445.3 270.294V299.661L1427.36 312.581L1406.16 297.296V249.293L1446.14 220.453V187.276L1445.83 187.057L1361.64 126.353C1363.22 124.777 1363.05 122.587 1361.08 121.163C1358.91 119.587 1355.38 119.587 1353.21 121.163C1351.04 122.74 1351.04 125.28 1353.21 126.835C1355.17 128.258 1358.23 128.368 1360.4 127.229L1444.88 188.152V219.533L1406.15 247.476V214.387L1405.83 214.168L1354.33 177.027C1355.91 175.45 1355.74 173.261 1353.77 171.837C1351.6 170.26 1348.07 170.26 1345.9 171.837C1343.72 173.414 1343.72 175.954 1345.9 177.509C1347.86 178.932 1350.91 179.042 1353.09 177.903L1404.9 215.263V296.354L1390.01 285.623L1365.48 303.318L1343.27 287.288V248.352L1342.95 248.133L1284.21 205.78V169.078C1285.42 168.99 1286.6 168.618 1287.53 167.939C1289.7 166.362 1289.7 163.822 1287.53 162.267C1285.35 160.691 1281.83 160.691 1279.65 162.267C1277.48 163.844 1277.48 166.384 1279.65 167.939C1280.58 168.618 1281.76 168.968 1282.97 169.078V206.678L1283.28 206.897L1342.02 249.249V286.39L1246.43 217.452V144.376L1298.28 106.995H1345.86L1346 106.885L1427.66 48.0212C1429.84 49.1599 1432.89 49.0285 1434.85 47.627C1437.02 46.0503 1437.02 43.5101 1434.85 41.9552C1432.68 40.3785 1429.15 40.3785 1426.98 41.9552C1425.01 43.3787 1424.84 45.5686 1426.42 47.1453L1345.53 105.462H1300.43L1450.44 -2.69646C1452.61 -1.55772 1455.66 -1.68911 1457.63 -3.09064C1459.8 -4.66735 1459.8 -7.20762 1457.63 -8.76244C1455.45 -10.3391 1451.93 -10.3391 1449.75 -8.76244C1447.79 -7.33901 1447.61 -5.14913 1449.19 -3.57242L1245.18 143.522V218.394L1245.5 218.613L1364.26 304.237L1340.36 321.472L1137.59 175.275V88.0304L1137.28 87.8114L1068.31 38.101C1069.89 36.5243 1069.72 34.3344 1067.75 32.911C1065.58 31.3343 1062.06 31.3343 1059.88 32.911C1057.71 34.4877 1057.71 37.028 1059.88 38.5828C1061.84 40.0062 1064.9 40.1157 1067.07 38.977L1136.33 88.9282V176.173L1136.65 176.392L1339.1 322.37L1316.34 338.772L1115.82 194.174H996.232L921.501 140.281V57.4596C922.29 57.2625 923.044 56.9559 923.658 56.518C925.832 54.9412 925.832 52.401 923.658 50.8462C921.483 49.2694 917.959 49.2694 915.785 50.8462C913.61 52.4229 913.61 54.9632 915.785 56.518C917.012 57.3939 918.66 57.7662 920.256 57.6567V141.179L920.572 141.398L995.916 195.729H1115.5L1284.77 317.793H1250.72L1192.95 276.141H1148.45L1148.31 276.251L1086.59 320.749C1084.41 319.61 1081.36 319.742 1079.4 321.143C1077.22 322.72 1077.22 325.26 1079.4 326.815C1081.57 328.392 1085.1 328.392 1087.27 326.815C1089.23 325.392 1089.41 323.202 1087.83 321.625L1148.78 277.674H1192.61L1250.39 319.326H1286.93L1315.11 339.648L1254.37 383.445L1237.1 370.985V338.29L1193.23 306.646C1194.81 305.07 1194.63 302.88 1192.67 301.456C1190.49 299.88 1186.97 299.88 1184.79 301.456C1182.62 303.033 1182.62 305.573 1184.79 307.128C1186.76 308.552 1189.81 308.661 1191.98 307.522L1235.85 339.166V370.065L1189.06 336.319H1166.89L1166.75 336.429L1140.33 355.481C1138.15 354.342 1135.1 354.473 1133.14 355.875C1130.96 357.452 1130.96 359.992 1133.14 361.547C1135.31 363.123 1138.84 363.123 1141.01 361.547C1142.98 360.123 1143.15 357.933 1141.57 356.357L1167.23 337.874H1188.7L1253.11 384.3L1241.41 392.731L1278.74 419.644L1261.26 432.258H1234.82L1215.9 418.615C1217.41 417.06 1217.2 414.892 1215.27 413.491C1213.09 411.914 1209.57 411.914 1207.4 413.491C1205.22 415.067 1205.22 417.608 1207.4 419.162C1209.38 420.586 1212.48 420.695 1214.67 419.513L1234.49 433.791H1259.1L1214.52 465.938L1109.63 390.3H1034.14L1034 390.409L991.497 421.046C989.323 419.907 986.272 420.038 984.308 421.44C982.134 423.017 982.134 425.557 984.308 427.112C986.483 428.688 990.007 428.688 992.181 427.112C994.145 425.688 994.32 423.498 992.742 421.922L1034.47 391.833H1109.27L1190.18 450.171H1155.55L1121.71 425.776C1123.28 424.199 1123.11 422.009 1121.15 420.586C1118.97 419.009 1115.45 419.009 1113.27 420.586C1111.1 422.163 1111.1 424.703 1113.27 426.258C1115.24 427.681 1118.29 427.791 1120.46 426.652L1155.21 451.704H1192.33L1213.25 466.792L1160 505.181H989.814L857.589 409.834C859.167 408.257 858.991 406.067 857.028 404.644C854.853 403.067 851.329 403.067 849.155 404.644C846.98 406.22 846.98 408.761 849.155 410.315C851.119 411.739 854.17 411.848 856.344 410.71L989.481 506.714H1157.84L1136.72 521.956H1010.73L1010.59 522.065L948.469 566.87C946.294 565.731 943.243 565.863 941.279 567.264C939.105 568.841 939.105 571.381 941.279 572.936C943.454 574.513 946.978 574.513 949.152 572.936C951.116 571.513 951.292 569.323 949.713 567.746L1011.08 523.51H1137.07L1137.21 523.401L1279.99 420.455L1295.84 431.886L1145.73 540.132H1035.95L1035.81 540.241L903.213 635.851H719.507L684 610.252V612.047L719.174 637.406H903.546L903.686 637.297L986.904 577.294V612.814L932.056 652.363C929.882 651.224 926.831 651.356 924.867 652.757C922.693 654.334 922.693 656.874 924.867 658.429C927.042 660.006 930.566 660.006 932.74 658.429C934.704 657.006 934.879 654.816 933.301 653.239L988.148 613.69V576.593H987.868L1036.3 541.664H1146.08L1146.22 541.555L1297.1 432.762L1315.11 445.748L1022.36 656.83V694.978H1023.6V657.728L1316.35 446.645L1338.6 462.697L1187.6 571.578V591.046L1160.83 610.361V655.144L1108.91 692.591C1106.73 691.452 1103.68 691.584 1101.72 692.985C1100.93 693.555 1100.42 694.255 1100.21 695H1111.06C1110.91 694.453 1110.61 693.949 1110.15 693.489L1162.07 656.042V611.259L1187.6 592.842V664.539L1202.66 675.401L1175.52 694.978H1178.01L1203.91 676.298L1229.8 694.978H1232.29L1188.83 663.641V572.476L1339.83 463.595L1360.08 478.202L1253.21 555.264C1251.04 554.125 1247.99 554.256 1246.02 555.658C1243.85 557.234 1243.85 559.775 1246.02 561.33C1248.2 562.906 1251.72 562.906 1253.9 561.33C1255.86 559.906 1256.04 557.716 1254.46 556.14L1361.33 479.078L1380.88 493.18L1253.04 585.353H1218.3C1218.09 584.608 1217.58 583.885 1216.78 583.294C1214.6 581.717 1211.08 581.717 1208.9 583.294C1206.73 584.871 1206.73 587.411 1208.9 588.966C1211.08 590.543 1214.6 590.543 1216.78 588.966C1217.58 588.375 1218.09 587.652 1218.3 586.907H1253.37L1253.51 586.798L1382.11 494.078L1390 499.772L1396.06 495.392L1426.7 517.466V548.212L1401.39 566.454V566.366H1361.68L1361.54 566.476L1317.97 597.901C1315.79 596.762 1312.74 596.893 1310.78 598.295C1308.6 599.872 1308.6 602.412 1310.78 603.967C1312.95 605.543 1316.48 605.543 1318.65 603.967C1320.61 602.543 1320.79 600.353 1319.21 598.777L1362.01 567.921H1399.34L1324.95 621.551C1322.75 620.325 1319.62 620.413 1317.6 621.858C1315.42 623.435 1315.42 625.975 1317.6 627.53C1319.77 629.107 1323.3 629.107 1325.47 627.53C1327.38 626.15 1327.61 624.026 1326.16 622.449L1418.95 555.548V570.33L1363.75 610.142V638.238L1318.81 670.649C1316.63 669.51 1313.58 669.641 1311.62 671.043C1309.45 672.619 1309.45 675.16 1311.62 676.714C1313.79 678.291 1317.32 678.291 1319.49 676.714C1321.46 675.291 1321.63 673.101 1320.05 671.524L1364.99 639.114V611.018L1420.19 571.206V554.629L1427.92 549.044V516.503L1397.29 494.407L1417.42 479.888L1480.44 525.328V576.987L1437.64 607.843C1435.45 606.616 1432.31 606.704 1430.29 608.149C1428.12 609.726 1428.12 612.266 1430.29 613.821C1432.47 615.398 1435.99 615.398 1438.16 613.821C1440.08 612.441 1440.3 610.317 1438.85 608.741L1480.42 578.761V620.5L1447.58 644.195V694.869H1448.82V645.093L1480.42 622.296V694.847H1481.67V524.386L1418.65 478.946L1441.25 462.654L1523.63 522.043V663.51L1563.22 692.066V694.847H1564.46V691.168L1524.87 662.612V521.145L1442.49 461.756L1459.24 449.668L1570.41 529.817V650.502L1631.86 694.825H1634.35L1571.65 649.604V528.919L1460.48 448.77L1487.63 429.192L1672.6 562.556V622.603L1735.98 668.305V666.51L1673.84 621.705V561.658L1569.81 486.633H1652.08L1735.98 547.139V545.344L1652.41 485.078H1567.64L1488.87 428.294L1520.43 405.541L1588.13 454.354H1696.85L1735.98 482.56V480.764L1727.41 474.588H1735.98V473.034H1725.25L1697.2 452.799H1588.48L1569.53 439.134H1615.75L1615.89 439.025L1639.07 422.316H1735.67L1735.98 422.535V420.739H1641.23L1667.32 401.928C1669.49 403.067 1672.54 402.935 1674.51 401.534C1676.68 399.957 1676.68 397.417 1674.51 395.862C1672.33 394.285 1668.81 394.285 1666.63 395.862C1664.67 397.286 1664.5 399.475 1666.07 401.052L1615.4 437.601H1567.36L1521.66 404.665L1538.55 392.49L1527.68 384.65H1559.26L1600.53 414.41C1598.95 415.987 1599.13 418.177 1601.09 419.6C1603.27 421.177 1606.79 421.177 1608.96 419.6C1611.14 418.024 1611.14 415.483 1608.96 413.929C1607 412.505 1603.95 412.396 1601.78 413.534L1559.59 383.117H1525.52L1502.41 366.452L1516.61 356.203H1541.81L1563.97 340.217H1580.51L1617.85 367.153C1616.17 368.729 1616.31 370.985 1618.31 372.43C1620.48 374.007 1624.01 374.007 1626.18 372.43C1628.36 370.854 1628.36 368.313 1626.18 366.759C1624.25 365.379 1621.29 365.226 1619.12 366.277L1580.84 338.684H1563.64L1541.48 354.67H1518.77L1564.2 321.91H1588.73L1639.86 358.766H1735.96V357.211H1640.19L1589.06 320.355H1563.87L1563.73 320.464L1501.16 365.576L1484.75 353.751L1555.45 302.77H1605.32L1646.45 332.421H1735.98V330.866H1646.8L1607.82 302.77H1735.98V301.215H1555.13L1554.99 301.325L1483.54 352.853L1464.89 339.407L1563.46 268.323H1735.98V266.769H1610.26L1735.98 176.107V174.312L1607.77 266.769H1564.38L1657.83 199.386V184.538L1702.56 152.303C1704.74 153.442 1707.79 153.311 1709.75 151.909C1711.93 150.333 1711.93 147.792 1709.75 146.237C1707.58 144.661 1704.05 144.661 1701.88 146.237C1699.91 147.661 1699.74 149.851 1701.32 151.427L1676.96 168.99V128.28L1736 85.7091V83.9134L1675.72 127.383V169.888L1656.59 183.684V198.532L1562.36 266.484L1562.67 267.163L1463.64 338.575L1445.63 325.589L1547.37 252.228V131.543L1735.98 -4.47027V-6.26597L1577.07 108.331V-0.83506L1698.76 -88.3647C1698.85 -88.299 1698.92 -88.2114 1699 -88.1457C1701.18 -86.569 1704.7 -86.569 1706.88 -88.1457C1709.05 -89.7224 1709.05 -92.2626 1706.88 -93.8175H1706.89ZM1536.15 392.774L1390.01 498.151L1243.9 392.796L1390.03 287.419L1536.15 392.774Z" fill="url(#paint0_radial_20_11947)"/>
</g>
</g>
<defs>
<filter id="filter0_f_20_11947" x="147" y="-232" width="1840" height="1183" filterUnits="userSpaceOnUse" color-interpolation-filters="sRGB">
<feFlood flood-opacity="0" result="BackgroundImageFix"/>
<feBlend mode="normal" in="SourceGraphic" in2="BackgroundImageFix" result="shape"/>
<feGaussianBlur stdDeviation="100" result="effect1_foregroundBlur_20_11947"/>
</filter>
<radialGradient id="paint0_radial_20_11947" cx="0" cy="0" r="1" gradientUnits="userSpaceOnUse" gradientTransform="translate(1758.85 24.1515) rotate(-180) scale(770.348 962.103)">
<stop stop-color="#13161F"/>
<stop offset="1" stop-color="#4AACB8"/>
</radialGradient>
<clipPath id="clip0_20_11947">
<rect width="1440" height="721" fill="white"/>
</clipPath>
</defs>
</svg>
